<?xml version="1.0" encoding="UTF-8"?>
<svg xmlns="http://www.w3.org/2000/svg" xmlns:xlink="http://www.w3.org/1999/xlink" width="144pt" height="144pt" viewBox="0 0 144 144" version="1.1">
<g id="surface1">
<path style=" stroke:none;fill-rule:nonzero;fill:rgb(97.880554%,69.718933%,4.23584%);fill-opacity:1;" d="M 143.261719 72.234375 C 143.261719 32.847656 111.328125 0.914062 71.9375 0.914062 C 32.550781 0.914062 0.617188 32.847656 0.617188 72.234375 C 0.617188 111.625 32.550781 143.558594 71.9375 143.558594 C 111.328125 143.558594 143.261719 111.625 143.261719 72.234375 Z M 137.703125 72.234375 C 137.703125 108.554688 108.257812 138 71.9375 138 C 35.617188 138 6.175781 108.554688 6.175781 72.234375 C 6.175781 35.914062 35.617188 6.472656 71.9375 6.472656 C 108.257812 6.472656 137.703125 35.914062 137.703125 72.234375 Z M 134.300781 72.234375 C 134.300781 37.792969 106.378906 9.875 71.9375 9.875 C 37.496094 9.875 9.574219 37.792969 9.574219 72.234375 C 9.574219 106.675781 37.496094 134.597656 71.9375 134.597656 C 106.378906 134.597656 134.300781 106.675781 134.300781 72.234375 Z M 111.210938 26.964844 C 66.476562 30.152344 32.535156 45.175781 32.535156 63.3125 C 32.535156 83.269531 73.589844 99.480469 124.953125 100.265625 C 124.316406 101.464844 123.609375 102.613281 122.898438 103.761719 C 79.75 103.050781 56.753906 94.441406 38.199219 79.4375 C 40.402344 99.394531 51.734375 118.128906 68.160156 132.027344 C 36.800781 130.070312 11.953125 104.089844 11.953125 72.234375 C 11.953125 39.109375 38.8125 12.253906 71.9375 12.253906 C 86.972656 12.253906 100.683594 17.824219 111.210938 26.964844 Z M 117.4375 33.214844 C 126.445312 43.710938 131.921875 57.320312 131.921875 72.234375 C 131.921875 79.09375 130.714844 85.652344 128.597656 91.789062 C 128.558594 91.789062 128.523438 91.789062 128.484375 91.789062 C 81.429688 91.789062 43.285156 78.617188 43.285156 62.367188 C 43.285156 47.410156 75.613281 35.089844 117.4375 33.214844 "/>
</g>
</svg>
